# xmcd
#
# Track frame offsets: 
#        150
#        15292
#        30610
#        46482
#        61710
#        81447
#        97307
#        114960
#        137497
#        157002
#
# Disc length: 2320 seconds
#
# Revision: 2
# Processed by: cddbd v1.5PL3 Copyright (c) Steve Scherf et al.
# Submitted via: ExactAudioCopy v0.95a4
#
DISCID=75090e0a,78090e0a
DTITLE=Pam Tillis - All Of This Love
DYEAR=1995
DGENRE=Country
TTITLE0=Deep Down
TTITLE1=Mandolin Rain
TTITLE2=Sunset Red And Pale Moonlight
TTITLE3=It's Lonely Out There
TTITLE4=The River And The Highway
TTITLE5=You Can't Have A Good Time Without Me
TTITLE6=Betty's Got A Bass Boat
TTITLE7=Tequila Mockingbird
TTITLE8=No Two Ways About It
TTITLE9=All Of This Love
EXTD=
EXTT0=
EXTT1=
EXTT2=
EXTT3=
EXTT4=
EXTT5=
EXTT6=
EXTT7=
EXTT8=
EXTT9=
PLAYORDER=
